PathFileType	4	(X/Y/Z)	/Users/itak/Documents/Research/Walk-IL/dataset/trc/00564_00009.trc
DataRate	CameraRate	NumFrames	NumMarkers	Units	OrigDataRate	OrigDataStartFrame	OrigNumFrames
100.000000	100.000000	4	53	mm	100.000000	377	503
Frame#	Time	RPSI			LPSI			L3			STRN			T10			C7			CLAV			RBAK			LBAK			LSHO			LUPA			LAEL			LAOL			LWTS			LWPS			LFRA			LHPS			LHTS			RSHO			RUPA			RAEL			RAOL			RWTS			RWPS			RFRA			RIFD			RHTS			RHPS			RBHD			LFHD			RFHD			LBHD			LHIP			RHIP			RASI			LASI			LKNE			LTHI			LANK			LTIP			LTOE			LMT1			LMT5			LHEE			RKNE			RTHI			RANK			RTIP			RTOE			RMT1			RMT5			RHEE			LIFD			
		X1	Y1	Z1	X2	Y2	Z2	X3	Y3	Z3	X4	Y4	Z4	X5	Y5	Z5	X6	Y6	Z6	X7	Y7	Z7	X8	Y8	Z8	X9	Y9	Z9	X10	Y10	Z10	X11	Y11	Z11	X12	Y12	Z12	X13	Y13	Z13	X14	Y14	Z14	X15	Y15	Z15	X16	Y16	Z16	X17	Y17	Z17	X18	Y18	Z18	X19	Y19	Z19	X20	Y20	Z20	X21	Y21	Z21	X22	Y22	Z22	X23	Y23	Z23	X24	Y24	Z24	X25	Y25	Z25	X26	Y26	Z26	X27	Y27	Z27	X28	Y28	Z28	X29	Y29	Z29	X30	Y30	Z30	X31	Y31	Z31	X32	Y32	Z32	X33	Y33	Z33	X34	Y34	Z34	X35	Y35	Z35	X36	Y36	Z36	X37	Y37	Z37	X38	Y38	Z38	X39	Y39	Z39	X40	Y40	Z40	X41	Y41	Z41	X42	Y42	Z42	X43	Y43	Z43	X44	Y44	Z44	X45	Y45	Z45	X46	Y46	Z46	X47	Y47	Z47	X48	Y48	Z48	X49	Y49	Z49	X50	Y50	Z50	X51	Y51	Z51	X52	Y52	Z52	X53	Y53	Z53	

378	3.77	397.5755615234375	1014.205200195312	703.8128051757812	531.8806762695312	1018.774963378906	698.3021240234375	471.0548095703125	1111.410400390625	705.5819091796875	489.7850036621094	1299.195434570312	938.2888793945312	475.8168640136719	1237.285034179688	697.2286376953125	465.8385925292969	1512.648071289062	747.7030029296875	487.7262268066406	1409.768676757812	919.29833984375	376.86083984375	1386.604858398438	681.27880859375	555.9281616210938	1460.124633789062	706.2820434570312	644.9781494140625	1484.087646484375	798.7395629882812	726.3741455078125	1358.35791015625	786.5297241210938	755.794921875	1140.121704101562	814.8409423828125	703.2074584960938	1124.427490234375	729.3334350585938	712.595947265625	910.5845947265625	933.7138061523438	784.1751708984375	883.6766967773438	891.6087036132812	764.9993896484375	1057.293090820312	846.0201416015625	777.545654296875	825.2804565429688	906.4423217773438	735.2756958007812	834.9951782226562	957.6867065429688	314.6020202636719	1473.13232421875	815.1731567382812	245.3475952148438	1408.769287109375	800.2736206054688	195.4677276611328	1121.906127929688	787.113525390625	221.0100708007812	1105.381713867188	730.6669311523438	233.3410339355469	902.3026733398438	920.6338500976562	165.5431060791016	880.988525390625	875.9535522460938	185.3333282470703	1066.125854492188	796.5673217773438	232.3149719238281	728.7723999023438	929.1777954101562	218.2090454101562	810.47802734375	948.94482421875	169.6392059326172	806.817626953125	893.1665649414062	400.8105773925781	1694.283447265625	860.7843627929688	555.8776245117188	1694.573852539062	999.5801391601562	412.0660095214844	1690.4111328125	1000.999206542969	566.9142456054688	1696.532592773438	866.2913818359375	671.2687377929688	944.0162963867188	822.1398315429688	284.1649780273438	945.058837890625	836.980712890625	345.3212890625	980.8674926757812	918.6987915039062	620.6988525390625	971.3509521484375	900.92333984375	607.546142578125	511.4005126953125	935.2605590820312	643.4302978515625	673.6050415039062	900.169189453125	600.7163696289062	34.96454238891602	876.4544677734375	608.8571166992188	257.6525573730469	893.0507202148438	535.5718383789062	43.08684539794922	1088.094604492188	503.7204284667969	47.73175811767578	1013.234802246094	612.2836303710938	38.08036804199219	998.8638305664062	546.4567260742188	40.53542709350586	807.4163208007812	332.3108215332031	506.1384582519531	910.7476196289062	296.0610046386719	795.3775024414062	891.7081298828125	331.3495483398438	117.9228744506836	615.7815551757812	339.8705749511719	370.3385925292969	850.739501953125	374.1186828613281	61.30257797241211	820.8250732421875	416.1377258300781	75.19571685791016	761.4896240234375	314.0481262207031	75.48931121826172	737.9661865234375	387.1273193359375	132.3626098632812	564.0916748046875	720.290283203125	739.4443969726562	949.2398681640625	
379	3.78	398.5556335449219	1014.904113769531	707.0430297851562	532.9168701171875	1019.341369628906	701.6603393554688	472.2658996582031	1112.1005859375	708.881103515625	490.7364807128906	1299.58056640625	942.1448974609375	477.3435974121094	1237.964111328125	700.9226684570312	467.5357666015625	1513.234252929688	751.7647705078125	488.7894592285156	1410.19775390625	923.3530883789062	378.5144958496094	1387.44189453125	684.9679565429688	557.7352905273438	1460.658569335938	710.5117797851562	646.465087890625	1484.519653320312	803.3206787109375	727.944091796875	1358.804077148438	791.7421264648438	757.341552734375	1140.703125	821.0070190429688	705.127197265625	1124.575317382812	735.3118286132812	713.949951171875	911.83837890625	940.9713134765625	785.6353759765625	884.758544921875	899.2127075195312	766.5070190429688	1058.0830078125	852.6270141601562	779.0541381835938	826.4613037109375	914.3447875976562	736.6838989257812	836.3675537109375	965.4263305664062	316.0646057128906	1473.906372070312	818.8323974609375	246.744140625	1409.620239257812	803.7849731445312	196.7641906738281	1122.776977539062	790.7247924804688	222.2522277832031	1106.061889648438	734.3445434570312	234.832275390625	904.16015625	925.6158447265625	167.1686096191406	882.3646850585938	880.9981689453125	186.6669464111328	1067.023803710938	800.42333984375	233.9629364013672	730.7000122070312	935.5755615234375	219.715087890625	812.55712890625	954.6768798828125	171.387939453125	808.3728637695312	898.7957153320312	402.3105163574219	1694.74072265625	864.6908569335938	557.0736694335938	1695.008666992188	1003.817077636719	413.2719116210938	1690.958862304688	1004.941711425781	568.3980712890625	1696.873046875	870.53759765625	671.9420166015625	944.1448974609375	825.7444458007812	284.6637878417969	945.8797607421875	839.8704223632812	346.0552978515625	981.6729125976562	921.8792724609375	621.4439086914062	971.507080078125	904.3352661132812	607.83837890625	511.1143493652344	936.4227294921875	643.8594970703125	673.4407348632812	902.2398681640625	600.6337890625	35.03570175170898	876.4058837890625	608.925048828125	257.5538330078125	893.5599975585938	535.56494140625	43.07255172729492	1088.100952148438	503.6494140625	47.68363952636719	1013.235229492188	612.1765747070312	38.14360046386719	998.8528442382812	546.4134521484375	40.55783081054688	807.3953857421875	333.0411682128906	507.3484497070312	915.9668579101562	296.3265686035156	796.403564453125	895.2379150390625	333.0326538085938	112.9014511108398	629.1985473632812	340.7339477539062	370.5585632324219	858.2860717773438	374.767578125	62.41077041625977	836.0697021484375	417.0907287597656	74.17491912841797	776.4843139648438	315.162353515625	74.05472564697266	752.4212036132812	389.1844787597656	125.7950973510742	577.3219604492188	721.72802734375	740.9473876953125	957.4872436523438	
380	3.79	399.510009765625	1015.535278320312	710.1810913085938	533.9070434570312	1019.835083007812	704.9261474609375	473.4146118164062	1112.741455078125	712.0828247070312	491.6419067382812	1299.914306640625	945.8831176757812	478.7691345214844	1238.599731445312	704.5044555664062	469.1470031738281	1513.773193359375	755.715576171875	489.8026428222656	1410.582763671875	927.290283203125	380.0599060058594	1388.227783203125	688.5661010742188	559.4620361328125	1461.155639648438	714.6200561523438	647.873779296875	1484.903564453125	807.796142578125	729.4336547851562	1359.202880859375	796.8369750976562	758.80615234375	1141.230712890625	826.97607421875	706.9417114257812	1124.688720703125	741.112060546875	715.2520751953125	913.0849609375	948.0779418945312	786.9901733398438	885.8025512695312	906.6332397460938	767.935791015625	1058.82763671875	859.024169921875	780.4683837890625	827.6102905273438	922.0952758789062	738.0090942382812	837.75537109375	973.04541015625	317.4496154785156	1474.62060546875	822.4239501953125	248.0562133789062	1410.418212890625	807.2473754882812	197.9535980224609	1123.583740234375	794.3740844726562	223.3580017089844	1106.6708984375	738.0443115234375	236.3314514160156	905.9434814453125	930.5946044921875	168.7561645507812	883.6708984375	886.0912475585938	187.8982238769531	1067.848999023438	804.3248901367188	235.7117767333984	732.5653686523438	941.8895263671875	221.2796478271484	814.550048828125	960.3735961914062	173.1801147460938	809.84765625	904.4344482421875	403.748291015625	1695.1396484375	868.5293579101562	558.2468872070312	1695.3818359375	1007.945190429688	414.4444580078125	1691.445434570312	1008.803527832031	569.8248291015625	1697.145141601562	874.6705322265625	672.5617065429688	944.2405395507812	829.3070068359375	285.1758728027344	946.6558837890625	842.7214965820312	346.7274475097656	982.4129028320312	924.9926147460938	622.1320190429688	971.6423950195312	907.6619262695312	608.1317138671875	510.8262939453125	937.5574340820312	644.2608032226562	673.2578125	904.2893676757812	600.5443115234375	35.10869216918945	876.3526000976562	608.9871826171875	257.4502258300781	894.0599975585938	535.5607299804688	43.05964279174805	1088.110107421875	503.5852661132812	47.63896942138672	1013.233215332031	612.080078125	38.20061874389648	998.8436889648438	546.3652954101562	40.58643341064453	807.3729858398438	333.6375122070312	508.4802551269531	920.7992553710938	296.5027465820312	797.35693359375	898.6021728515625	334.6968994140625	107.8198471069336	642.619384765625	341.4328308105469	370.7108459472656	865.5804443359375	375.1510620117188	63.45963287353516	851.1973266601562	417.8797302246094	73.14363098144531	791.4807739257812	316.0878601074219	72.59906005859375	766.7705078125	391.2827758789062	119.1274948120117	590.6450805664062	723.0449829101562	742.5523071289062	965.68505859375	
381	3.8	400.4383239746094	1016.1015625	713.2325439453125	534.8488159179688	1020.255676269531	708.1150512695312	474.4962463378906	1113.329711914062	715.208251953125	492.5003967285156	1300.202880859375	949.5068969726562	480.0770874023438	1239.189697265625	707.9703979492188	470.6659545898438	1514.265014648438	759.551513671875	490.7630920410156	1410.926391601562	931.1089477539062	381.4929504394531	1388.9609375	692.0740356445312	561.1015014648438	1461.612670898438	718.6049194335938	649.2003173828125	1485.235473632812	812.1546630859375	730.8414916992188	1359.554443359375	801.7965087890625	760.1930541992188	1141.70556640625	832.7365112304688	708.6651000976562	1124.768310546875	746.7188110351562	716.4803466796875	914.320068359375	955.0120849609375	788.2307739257812	886.807861328125	913.8633422851562	769.2799682617188	1059.52490234375	865.2097778320312	781.7769165039062	828.727294921875	929.6895751953125	739.2318725585938	839.1699829101562	980.5341796875	318.7536010742188	1475.275512695312	825.9468383789062	249.2765197753906	1411.165283203125	810.656982421875	199.0332489013672	1124.327026367188	798.0609741210938	224.3229522705078	1107.211181640625	741.7640380859375	237.8384094238281	907.644775390625	935.5546264648438	170.3082427978516	884.9043579101562	891.2164306640625	189.0223388671875	1068.59716796875	808.2689819335938	237.5564270019531	734.365478515625	948.1207275390625	222.9070434570312	816.4525146484375	966.024169921875	174.9840698242188	811.2372436523438	910.0797119140625	405.1226806640625	1695.486694335938	872.2973022460938	559.3984985351562	1695.692260742188	1011.96044921875	415.5814819335938	1691.872314453125	1012.583984375	571.193115234375	1697.351196289062	878.68896484375	673.1461181640625	944.3153686523438	832.80810546875	285.7055358886719	947.3953247070312	845.5538940429688	347.3421630859375	983.0873413085938	928.04541015625	622.772216796875	971.7603759765625	910.9098510742188	608.4201049804688	510.5384521484375	938.6865234375	644.6369018554688	673.0722045898438	906.3213500976562	600.4513549804688	35.18392181396484	876.2974243164062	609.0484619140625	257.3446044921875	894.5531005859375	535.5582275390625	43.04701614379883	1088.121337890625	503.5275573730469	47.59781646728516	1013.229919433594	611.9956665039062	38.25071334838867	998.8370971679688	546.3134155273438	40.6213493347168	807.3505249023438	334.1058044433594	509.5243530273438	925.2696533203125	296.6122741699219	798.2406005859375	901.8333129882812	336.3201904296875	102.7634735107422	655.9800415039062	341.9766845703125	370.809814453125	872.6239624023438	375.2913208007812	64.48477935791016	866.107666015625	418.5052490234375	72.16555023193359	806.368408203125	316.8430480957031	71.17205810546875	780.940185546875	393.3705749511719	112.4684829711914	603.9899291992188	724.2340698242188	744.2388916015625	973.8155517578125	
